<svg width="92" height="31" viewBox="0 0 92 31" fill="none" xmlns="http://www.w3.org/2000/svg">
<path fill-rule="evenodd" clip-rule="evenodd" d="M5.32406 0H4.81689L0 11.9864H1.36843L2.85318 8.32198H7.30059L8.78534 11.9864H10.1965L5.32491 0.000894547L5.32406 0ZM3.36806 7.06143L5.10682 2.55689L6.84558 7.06143H3.36806ZM43.7514 0L38.8977 11.9864H40.2661L41.7509 8.32198H46.1983L47.683 11.9864H49.0942L44.2046 0H43.7342H43.7514ZM42.2666 7.06143L44.0045 2.55689L45.7433 7.06143H42.2666ZM18.4345 11.9855H11.8062V0.190559H13.1464V10.7259H18.4704V11.9855H18.4345ZM27.3806 11.9855H20.0279V0.190559H27.1916V1.44306H21.3245V5.33655H25.0911V6.59621H21.333V10.7187H27.3815V11.9784L27.3806 11.9855ZM81.3456 11.9855H73.9578V0.190559H81.1284V1.44306H75.2612V5.33655H79.0278V6.59621H75.2612V10.7187H81.3097V11.9784H81.3456V11.9855ZM37.7388 11.9855H36.2181L33.2119 7.13658L30.1697 11.9855H28.6131L32.4618 5.95386L28.8679 0.190559H30.3903L33.1785 4.77114L35.9308 0.190559H37.4531L33.9482 5.95475L37.7508 11.9864L37.7388 11.9855ZM58.3115 9.08422V0.190559H59.6508V12.1788H59.1804L52.0458 3.13036V11.9873H50.7064V0.000894547H51.1768L58.3123 9.08601L58.3115 9.08422ZM62.4399 0.189665V11.9847H65.772C67.6553 11.9847 69.1041 11.4121 70.2194 10.3054C71.3056 9.19873 71.8487 7.78609 71.8487 6.06837C71.8487 4.35065 71.3056 2.93712 70.2194 1.83134C69.1332 0.725557 67.6476 0.189665 65.772 0.189665H62.4399ZM69.2136 2.74835C70.0466 3.58931 70.4811 4.73446 70.4811 6.10774C70.4811 7.48102 70.0466 8.58859 69.2136 9.46713C68.3806 10.3457 67.2208 10.8028 65.7729 10.8028H63.7801V1.52716L65.7361 1.48869C67.2208 1.45022 68.3883 1.8707 69.2136 2.74835ZM84.3887 7.02475H86.7791L90.2567 11.9873H91.7774L88.228 6.87266C88.9524 6.64363 89.5323 6.26162 89.9668 5.68904C90.4012 5.11647 90.5826 4.42938 90.5826 3.62778C90.5826 2.64367 90.2575 1.79555 89.6041 1.14693C88.9507 0.498317 88.0835 0.192348 86.9955 0.192348H83.0408V11.9873H84.3801V7.0167L84.3887 7.02475ZM84.3887 1.45111H86.9605C87.6849 1.45111 88.228 1.64167 88.6265 2.06216C89.0251 2.48264 89.2064 2.97827 89.2064 3.62778C89.2064 4.27729 88.9892 4.8114 88.6265 5.19341C88.228 5.57542 87.6857 5.76598 86.9605 5.76598H84.3887V1.45111Z" fill="#101F33"/>
<path d="M34.1149 24.3135H28.9722L28.9696 24.3341V25.6698H32.7738V27.2569C32.3761 27.9073 31.869 28.4021 31.2172 28.7841C30.6014 29.1661 29.842 29.3566 29.0449 29.3566C27.7397 29.3566 26.6535 28.8592 25.8205 27.9431C24.9875 26.9885 24.553 25.8434 24.553 24.4692C24.553 23.095 24.9875 21.9499 25.8205 21.0338C26.6535 20.1177 27.7038 19.6596 29.0081 19.6596C30.4569 19.6596 31.6509 20.3091 32.5575 21.6063L33.5718 20.7654C33.0646 20.0022 32.4129 19.3921 31.6158 18.9716C30.8059 18.5436 29.9152 18.3089 29.0081 18.2845C27.4874 18.2845 26.0018 18.8562 24.8788 20.0407C23.7559 21.2252 23.2128 22.6745 23.2128 24.3923C23.2128 26.11 23.7559 27.5602 24.8788 28.7438C26.0018 29.9274 27.3779 30.5 29.0081 30.5C30.0951 30.5 31.1078 30.2316 32.0144 29.659C32.9192 29.124 33.6077 28.3609 34.1149 27.4448V24.3135Z" fill="#101F33"/>
<path d="M65.6325 18.4733H65.5889L65.5966 18.4724L65.6325 18.4733H66.9282V30.4588H66.4578L59.3317 21.4203V30.2772H58.0274V18.2443H58.4978L65.6325 27.3294V18.4733Z" fill="#101F33"/>
<path d="M91.2307 18.4831H89.7827L86.1239 27.7212L82.4659 18.4831H81.0179L85.8707 30.4687H86.3779L91.2307 18.4831Z" fill="#101F33"/>
<path fill-rule="evenodd" clip-rule="evenodd" d="M5.28374 18.484C8.18139 18.484 8.83311 20.8208 8.83311 21.805C8.83311 22.4554 8.39692 23.7526 7.31073 24.3636C8.39863 25.0114 8.83311 26.3095 8.83311 26.9581C8.83311 27.9503 8.18139 30.279 5.28374 30.279H0.684097V18.484H5.28374ZM7.4929 26.9581C7.4929 27.5691 7.02251 29.0194 5.18367 29.0194H2.03286V24.9362H5.18367C6.92244 24.8977 7.4929 26.3497 7.4929 26.9581ZM2.03286 23.7517H5.18367C6.91303 23.7517 7.4929 22.3399 7.4929 21.6913C7.4929 21.0794 7.06698 19.7052 5.18367 19.7052H2.03286V23.7517Z" fill="#101F33"/>
<path fill-rule="evenodd" clip-rule="evenodd" d="M15.9319 18.2443C14.3017 18.2443 12.9256 18.8168 11.8026 20.0005C10.6796 21.1841 10.1365 22.6343 10.1365 24.352C10.1365 26.0697 10.6796 27.519 11.8026 28.7036C12.9256 29.8881 14.3017 30.4597 15.9319 30.4597C17.562 30.4597 18.9014 29.8872 20.0611 28.7036C21.1841 27.5199 21.7716 26.0697 21.7716 24.352C21.7716 22.6343 21.2285 21.185 20.0611 20.0005C18.9022 18.8553 17.5261 18.2443 15.9319 18.2443ZM15.9319 29.1616C17.2361 29.1616 18.2864 28.7036 19.1194 27.7874C19.9525 26.8722 20.387 25.7271 20.387 24.3135C20.387 22.9778 19.9525 21.8327 19.1194 20.9166C18.2411 20.0005 17.1994 19.5424 15.9319 19.5424C14.6276 19.5424 13.5773 20.0005 12.7443 20.9166C11.9112 21.8327 11.4768 22.9778 11.4768 24.352C11.4768 25.7262 11.9112 26.8713 12.7443 27.7874C13.5773 28.7036 14.6643 29.1616 15.9319 29.1616Z" fill="#101F33"/>
<path fill-rule="evenodd" clip-rule="evenodd" d="M39.6921 18.4733H36.36V30.2772H39.6921C41.5754 30.2772 43.0243 29.7047 44.1395 28.598C45.2257 27.4913 45.7697 26.0787 45.7697 24.361C45.7697 22.6432 45.2266 21.2297 44.1395 20.1239C43.0166 19.0172 41.531 18.4822 39.6921 18.4822V18.4733ZM39.6562 29.0847C41.1401 29.0847 42.2998 28.6257 43.1329 27.749L43.132 27.7579C44.0018 26.8794 44.4004 25.7342 44.3636 24.3985C44.3636 23.0252 43.9291 21.8801 43.0961 21.0391C42.2708 20.1624 41.1042 19.7419 39.6194 19.7419L37.6634 19.7804V29.0847H39.6562Z" fill="#101F33"/>
<path fill-rule="evenodd" clip-rule="evenodd" d="M51.0356 18.2443L46.1828 30.2307H47.5512L49.0359 26.5662H53.4834L54.9681 30.2307H56.3793L51.4974 18.2443H51.0356ZM51.2887 20.8396L49.5508 25.3442H53.0275L51.2887 20.8396Z" fill="#101F33"/>
<path fill-rule="evenodd" clip-rule="evenodd" d="M74.8241 18.2443C73.1948 18.2443 71.8178 18.8168 70.6957 20.0005C69.5735 21.1841 69.0296 22.6343 69.0296 24.352C69.0296 26.0697 69.5727 27.519 70.6957 28.7036C71.8186 29.8881 73.1948 30.4597 74.8241 30.4597C76.4174 30.4597 77.7944 29.8872 78.9533 28.7036C80.0754 27.5199 80.6638 26.0697 80.6638 24.352C80.6638 22.6343 80.1208 21.185 78.9533 20.0005C77.8303 18.8553 76.4542 18.2443 74.8241 18.2443ZM74.8241 29.1616C76.1284 29.1616 77.1786 28.7036 78.0117 27.7874C78.8806 26.8722 79.2792 25.7271 79.2792 24.3135C79.2792 22.9778 78.8447 21.8327 78.0117 20.9166C77.1333 20.0005 76.0916 19.5424 74.8241 19.5424C73.5206 19.5424 72.4781 20.0005 71.6373 20.9166C70.7966 21.8327 70.369 22.9778 70.369 24.352C70.369 25.7262 70.8043 26.8713 71.6373 27.7874C72.4704 28.7036 73.5566 29.1616 74.8241 29.1616Z" fill="#101F33"/>
</svg>
