<?xml version="1.0" encoding="utf-8"?><svg xmlns="http://www.w3.org/2000/svg" xmlns:xlink="http://www.w3.org/1999/xlink"><symbol fill="none" viewBox="0 0 21 22" id="arrow" xmlns="http://www.w3.org/2000/svg"><path fill-rule="evenodd" d="M4.79 7.915a.65.65 0 01.919 0l4.79 4.79 4.79-4.79a.65.65 0 01.919.919l-5.25 5.25a.65.65 0 01-.919 0l-5.25-5.25a.65.65 0 010-.919z" fill="#101f33"/></symbol><symbol fill="none" viewBox="0 0 25 25" id="cart" xmlns="http://www.w3.org/2000/svg"><path fill-rule="evenodd" d="M12.5 2.475h-.046c-1.67 0-2.986 0-4.023.131-1.064.135-1.922.417-2.626 1.043S4.721 5.088 4.462 6.122c-.251 1.007-.404 2.301-.598 3.943l-.005.046-.325 2.75-.006.052-.403 4.895c.028 1.285.282 2.321 1.024 3.156s1.741 1.208 3.014 1.387c1.244.174 2.855.174 4.909.174H12.928l4.909-.174c1.272-.178 2.272-.552 3.014-1.387s.996-1.871 1.024-3.156c.027-1.255-.162-2.855-.403-4.895l-.006-.052-.325-2.75-.005-.046-.598-3.943c-.258-1.034-.639-1.847-1.342-2.473s-1.562-.908-2.626-1.043c-1.037-.131-2.353-.131-4.023-.131h-.046zM6.668 4.621c.432-.384.997-.607 1.926-.725.946-.12 2.179-.121 3.905-.121l3.905.121c.929.118 1.494.341 1.926.725s.72.917.945 1.816c.229.917.373 2.129.573 3.826l.325 2.75.4 4.767c-.024 1.135-.244 1.812-.696 2.32s-1.098.805-2.223.963c-1.143.16-2.663.162-4.781.162h-.75c-2.118 0-3.638-.002-4.781-.162-1.125-.157-1.771-.455-2.223-.963s-.671-1.185-.696-2.32c-.025-1.154.152-2.664.4-4.767l.325-2.75.574-3.826c.224-.899.512-1.431.945-1.816zm3.357 4.754a2.475 2.475 0 104.95 0V7.292a.65.65 0 011.3 0v2.083a3.775 3.775 0 11-7.55 0V7.292a.65.65 0 111.3 0v2.083z" fill="#101f33"/></symbol><symbol fill="none" viewBox="0 0 25 25" id="catalog" xmlns="http://www.w3.org/2000/svg"><path fill-rule="evenodd" d="M18.229 2.375h-.042c-.736 0-1.35 0-1.844.055-.519.058-.997.184-1.416.5a2.75 2.75 0 00-.539.539c-.316.419-.442.897-.5 1.415-.055.494-.055 1.108-.055 1.844v.084l.055 1.844c.058.519.184.997.5 1.415.154.204.335.385.539.539.419.316.897.442 1.416.5.494.055 1.108.055 1.844.055h.084l1.844-.055c.519-.058.997-.184 1.415-.5a2.75 2.75 0 00.539-.539c.316-.419.442-.897.5-1.415.055-.494.055-1.108.055-1.844v-.084l-.055-1.844c-.058-.519-.184-.997-.5-1.415a2.75 2.75 0 00-.539-.539c-.419-.316-.897-.442-1.415-.5-.494-.055-1.108-.055-1.844-.055h-.042zM15.83 4.127c.116-.087.291-.163.678-.206.402-.045.931-.046 1.721-.046l1.721.046c.387.043.562.119.678.206a1.25 1.25 0 01.245.245c.087.116.163.291.206.678.045.402.046.931.046 1.721l-.046 1.721c-.043.387-.119.562-.206.678a1.25 1.25 0 01-.245.245c-.116.088-.291.163-.678.206-.402.045-.931.046-1.721.046s-1.319-.001-1.721-.046c-.387-.043-.562-.119-.678-.206a1.25 1.25 0 01-.245-.245c-.088-.116-.163-.291-.206-.678-.045-.402-.046-.931-.046-1.721l.046-1.721c.043-.387.119-.562.206-.678a1.25 1.25 0 01.245-.245zM6.77 2.375h-.042c-.736 0-1.35 0-1.844.055-.519.058-.997.184-1.415.5a2.75 2.75 0 00-.539.539c-.316.419-.442.897-.5 1.415-.055.494-.055 1.108-.055 1.844v.084l.055 1.844c.058.519.184.997.5 1.415a2.75 2.75 0 00.539.539c.419.316.897.442 1.415.5.494.055 1.108.055 1.844.055h.084l1.844-.055c.519-.058.997-.184 1.415-.5.204-.154.385-.335.539-.539.316-.419.442-.897.5-1.415.055-.494.055-1.108.055-1.844v-.084l-.055-1.844c-.058-.519-.184-.997-.5-1.415a2.75 2.75 0 00-.539-.539c-.419-.316-.897-.442-1.415-.5-.494-.055-1.108-.055-1.844-.055H6.77zM4.372 4.127c.116-.087.291-.163.678-.206.402-.045.931-.046 1.721-.046l1.721.046c.387.043.562.119.678.206a1.25 1.25 0 01.245.245c.088.116.163.291.206.678.045.402.046.931.046 1.721l-.046 1.721c-.043.387-.119.562-.206.678a1.25 1.25 0 01-.245.245c-.116.088-.291.163-.678.206-.402.045-.931.046-1.721.046s-1.319-.001-1.721-.046c-.387-.043-.562-.119-.678-.206a1.25 1.25 0 01-.245-.245c-.087-.116-.163-.291-.206-.678-.045-.402-.046-.931-.046-1.721l.046-1.721c.043-.387.119-.562.206-.678a1.25 1.25 0 01.245-.245zm2.356 9.706h.084l1.844.055c.519.058.997.184 1.415.5.204.154.385.335.539.539.316.419.442.897.5 1.416.055.494.055 1.108.055 1.844v.084l-.055 1.844c-.058.519-.184.997-.5 1.415a2.75 2.75 0 01-.539.539c-.419.316-.897.442-1.415.5-.494.055-1.108.055-1.844.055h-.084c-.736 0-1.35 0-1.844-.055-.519-.058-.997-.184-1.415-.5a2.75 2.75 0 01-.539-.539c-.316-.419-.442-.897-.5-1.415-.055-.494-.055-1.108-.055-1.844v-.084l.055-1.844c.058-.519.184-.997.5-1.416a2.75 2.75 0 01.539-.539c.419-.316.897-.442 1.415-.5.494-.055 1.108-.055 1.844-.055zM5.05 15.379c-.387.043-.562.119-.678.206a1.25 1.25 0 00-.245.245c-.087.116-.163.291-.206.678-.045.402-.046.931-.046 1.721l.046 1.721c.043.387.119.562.206.678a1.25 1.25 0 00.245.245c.116.087.291.163.678.206.402.045.931.046 1.721.046l1.721-.046c.387-.043.562-.119.678-.206a1.25 1.25 0 00.245-.245c.088-.116.163-.291.206-.678.045-.402.046-.931.046-1.721l-.046-1.721c-.043-.387-.119-.562-.206-.678a1.25 1.25 0 00-.245-.245c-.116-.088-.291-.163-.678-.206-.402-.045-.931-.046-1.721-.046l-1.721.046zm13.179-1.546h-.042l-1.844.055c-.519.058-.997.184-1.416.5a2.752 2.752 0 00-.539.539c-.316.419-.442.897-.5 1.416-.055.494-.055 1.108-.055 1.844v.084l.055 1.844c.058.519.184.997.5 1.415a2.75 2.75 0 00.539.539c.419.316.897.442 1.416.5.494.055 1.108.055 1.844.055h.084l1.844-.055c.519-.058.997-.184 1.415-.5a2.75 2.75 0 00.539-.539c.316-.419.442-.897.5-1.415.055-.494.055-1.108.055-1.844v-.084l-.055-1.844c-.058-.519-.184-.997-.5-1.416a2.75 2.75 0 00-.539-.539c-.419-.316-.897-.442-1.415-.5-.494-.055-1.108-.055-1.844-.055h-.042zm-2.399 1.752c.116-.088.291-.163.678-.206.402-.045.931-.046 1.721-.046l1.721.046c.387.043.562.119.678.206a1.25 1.25 0 01.245.245c.087.116.163.291.206.678.045.402.046.931.046 1.721l-.046 1.721c-.043.387-.119.562-.206.678a1.25 1.25 0 01-.245.245c-.116.087-.291.163-.678.206-.402.045-.931.046-1.721.046s-1.319-.001-1.721-.046c-.387-.043-.562-.119-.678-.206a1.25 1.25 0 01-.245-.245c-.088-.116-.163-.291-.206-.678-.045-.402-.046-.931-.046-1.721l.046-1.721c.043-.387.119-.562.206-.678.07-.093.152-.175.245-.245z" fill="#101f33"/></symbol><symbol fill="none" viewBox="0 0 10 8" id="check" xmlns="http://www.w3.org/2000/svg"><path fill-rule="evenodd" d="M9.642.223a.65.65 0 01-.032.919L3.36 6.975a.65.65 0 01-.887 0L.39 5.031a.65.65 0 01.887-.95l1.64 1.531L8.723.191a.65.65 0 01.919.032z" fill="#101f33"/></symbol><symbol fill="none" viewBox="0 0 26 25" id="close" xmlns="http://www.w3.org/2000/svg"><path fill-rule="evenodd" d="M6.29 5.79a.65.65 0 01.919 0l5.79 5.79 5.79-5.79a.65.65 0 01.919.919l-5.79 5.79 5.79 5.79a.65.65 0 01-.919.919L13 13.419l-5.79 5.79a.65.65 0 01-.919-.919l5.79-5.79-5.79-5.79a.65.65 0 010-.919z" fill="#101f33"/></symbol><symbol fill="none" viewBox="0 0 25 25" id="favourite" xmlns="http://www.w3.org/2000/svg"><path d="M12.5 7.812l-.465.454.465.475.465-.475-.465-.454zm1.069-1.093l.465.454-.465-.454zm-2.137 0l.465-.454-.465.454zm-7.029 6.873l-.465.454.465-.454zm16.196 0l-.465-.454.465.454zm-8.801 7.563l.465-.454-.465.454zm1.406 0l.465.454-.465-.454zm-.941-.454l-7.395-7.563-.93.909 7.395 7.563.929-.909zM10.967 7.174l1.069 1.093.93-.909-1.069-1.093-.93.909zm1.998 1.093l1.069-1.093-.93-.909-1.069 1.093.93.909zm7.169 4.872l-7.395 7.563.929.909 7.395-7.563-.93-.909zm-6.1-5.964a4.266 4.266 0 016.1 0l.93-.909a5.565 5.565 0 00-7.959 0l.93.909zm-9.167 0a4.266 4.266 0 016.1 0l.93-.909a5.565 5.565 0 00-7.959 0l.93.909zm0 5.964a4.265 4.265 0 010-5.964l-.93-.909a5.565 5.565 0 000 7.782l.93-.909zm15.267-5.964a4.265 4.265 0 010 5.964l.93.909a5.565 5.565 0 000-7.782l-.93.909zM11.332 21.61a1.634 1.634 0 002.336 0l-.929-.909a.333.333 0 01-.477 0l-.929.909z" fill="#101f33"/></symbol><symbol fill="none" viewBox="0 0 26 25" id="hamburger" xmlns="http://www.w3.org/2000/svg"><path fill-rule="evenodd" d="M2.826 6.548a.65.65 0 01.65-.65h19.048a.65.65 0 010 1.3H3.476a.65.65 0 01-.65-.65zm0 5.952a.65.65 0 01.65-.65h19.048a.65.65 0 110 1.3H3.476a.65.65 0 01-.65-.65zm.65 5.302a.65.65 0 100 1.3h19.048a.65.65 0 100-1.3H3.476z" fill="#101f33"/></symbol><symbol fill="none" viewBox="0 0 26 25" id="search" xmlns="http://www.w3.org/2000/svg"><path fill-rule="evenodd" d="M4.275 11.458a7.683 7.683 0 1115.367 0 7.683 7.683 0 01-15.367 0zm7.683-8.983a8.983 8.983 0 000 17.966 8.95 8.95 0 005.876-2.188l3.039 3.039a.65.65 0 00.919-.919l-3.039-3.039a8.95 8.95 0 002.188-5.876 8.983 8.983 0 00-8.983-8.983z" fill="#101f33"/></symbol><symbol fill="none" viewBox="0 0 25 25" id="user" xmlns="http://www.w3.org/2000/svg"><path fill-rule="evenodd" d="M8.984 7.292A3.52 3.52 0 0112.5 3.775a3.52 3.52 0 013.517 3.517 3.52 3.52 0 01-3.517 3.517 3.52 3.52 0 01-3.517-3.517zM12.5 2.475a4.82 4.82 0 00-4.817 4.817 4.82 4.82 0 004.817 4.817 4.82 4.82 0 004.817-4.817A4.82 4.82 0 0012.5 2.475zm-3.125 12.5h-.014l-.304.002a4.65 4.65 0 00-4.495 4.495l-.002.305v.025l.001.159a2.65 2.65 0 002.562 2.562l.159.001H17.721l.159-.001a2.65 2.65 0 002.562-2.562l.001-.159v-.025l-.003-.305a4.65 4.65 0 00-4.495-4.495l-.304-.002H9.377zm-.276 1.302l.276-.002h6.25l.276.002a3.35 3.35 0 013.239 3.239l.002.276-.001.128a1.35 1.35 0 01-1.305 1.305l-.127.001H7.292l-.128-.001a1.35 1.35 0 01-1.305-1.305v-.128l.002-.276A3.35 3.35 0 019.1 16.277z" fill="#101f33"/></symbol></svg>