<?xml version="1.0" encoding="utf-8"?><svg xmlns="http://www.w3.org/2000/svg" xmlns:xlink="http://www.w3.org/1999/xlink"><symbol fill="none" viewBox="0 0 21 22" id="arrow" xmlns="http://www.w3.org/2000/svg"><path fill-rule="evenodd" clip-rule="evenodd" d="M4.79 7.915a.65.65 0 01.92 0l4.79 4.79 4.79-4.79a.65.65 0 11.92.92l-5.25 5.25a.65.65 0 01-.92 0l-5.25-5.25a.65.65 0 010-.92z" fill="#101F33"/></symbol><symbol fill="none" viewBox="0 0 25 25" id="cart" xmlns="http://www.w3.org/2000/svg"><path fill-rule="evenodd" clip-rule="evenodd" d="M12.5 2.475h-.046c-1.67 0-2.986 0-4.023.131-1.064.135-1.922.417-2.626 1.044-.704.625-1.084 1.438-1.343 2.472-.25 1.007-.404 2.301-.597 3.943l-.006.046-.325 2.75-.006.052c-.24 2.04-.43 3.64-.402 4.895.027 1.285.281 2.322 1.023 3.156.742.835 1.742 1.209 3.014 1.387 1.244.174 2.855.174 4.91.174H12.926c2.055 0 3.666 0 4.91-.174 1.272-.178 2.271-.552 3.013-1.387.742-.834.996-1.87 1.024-3.155.027-1.256-.162-2.856-.403-4.896l-.006-.052-.325-2.75-.005-.046c-.194-1.642-.347-2.936-.598-3.943-.258-1.034-.638-1.847-1.342-2.472-.705-.627-1.562-.909-2.626-1.044-1.038-.131-2.353-.131-4.023-.131H12.5zM6.668 4.621c.432-.384.998-.607 1.926-.725.947-.12 2.18-.121 3.906-.121s2.959.001 3.905.121c.929.118 1.494.341 1.926.725.433.385.72.917.945 1.816.229.917.373 2.129.573 3.826l.325 2.75c.248 2.104.425 3.614.4 4.768-.024 1.135-.244 1.812-.695 2.32-.452.507-1.098.805-2.223.962-1.143.16-2.663.162-4.781.162h-.75c-2.118 0-3.639-.002-4.781-.162-1.125-.157-1.772-.455-2.223-.962-.451-.508-.671-1.185-.696-2.32-.025-1.154.152-2.664.4-4.768l.325-2.75c.2-1.697.345-2.909.574-3.826.224-.899.511-1.431.944-1.816zm3.357 4.754a2.475 2.475 0 104.95 0V7.292a.65.65 0 111.3 0v2.083a3.775 3.775 0 11-7.55 0V7.292a.65.65 0 011.3 0v2.083z" fill="#101F33"/></symbol><symbol fill="none" viewBox="0 0 25 25" id="catalog" xmlns="http://www.w3.org/2000/svg"><path fill-rule="evenodd" clip-rule="evenodd" d="M18.23 2.375h-.043c-.736 0-1.35 0-1.844.055-.52.058-.997.184-1.416.5a2.752 2.752 0 00-.539.539c-.316.419-.442.897-.5 1.415-.055.495-.055 1.109-.055 1.845v.084c0 .736 0 1.35.055 1.844.058.52.184.997.5 1.416.154.204.335.385.54.539.418.316.896.442 1.415.5.494.055 1.108.055 1.844.055h.084c.736 0 1.35 0 1.845-.055.518-.058.997-.184 1.415-.5a2.75 2.75 0 00.54-.54c.315-.418.441-.896.499-1.415.055-.494.055-1.108.055-1.844V6.73c0-.736 0-1.35-.055-1.845-.058-.518-.184-.996-.5-1.415a2.749 2.749 0 00-.539-.54c-.418-.315-.897-.441-1.415-.499-.495-.055-1.109-.055-1.845-.055h-.042zm-2.4 1.752c.117-.087.292-.163.679-.206.401-.045.931-.046 1.72-.046.79 0 1.32.001 1.72.046.388.043.563.119.679.206.093.07.175.153.245.245.087.116.163.291.206.678.045.402.046.932.046 1.72 0 .79-.001 1.32-.046 1.721-.043.387-.119.563-.206.678-.07.093-.152.176-.245.246-.116.087-.291.163-.678.206-.402.045-.932.046-1.72.046-.79 0-1.32-.001-1.721-.046-.387-.043-.563-.119-.678-.206a1.251 1.251 0 01-.245-.246c-.088-.116-.164-.29-.207-.678-.045-.401-.046-.931-.046-1.72 0-.79.001-1.32.046-1.72.043-.388.119-.563.207-.679.07-.092.152-.175.245-.245zM6.77 2.375H6.73c-.736 0-1.35 0-1.845.055-.518.058-.996.184-1.415.5a2.75 2.75 0 00-.54.539c-.315.419-.441.897-.499 1.415-.055.495-.055 1.109-.055 1.845v.084c0 .736 0 1.35.055 1.844.058.52.184.997.5 1.416.153.204.335.385.539.539.419.316.897.442 1.415.5.495.055 1.109.055 1.845.055h.084c.736 0 1.35 0 1.844-.055.52-.058.997-.184 1.416-.5.204-.154.385-.335.539-.54.316-.418.442-.896.5-1.415.055-.494.055-1.108.055-1.844V6.73c0-.736 0-1.35-.055-1.845-.058-.518-.184-.996-.5-1.415a2.752 2.752 0 00-.54-.54c-.418-.315-.896-.441-1.415-.499-.494-.055-1.108-.055-1.844-.055h-.042zM4.373 4.127c.116-.087.291-.163.678-.206.402-.045.932-.046 1.72-.046.79 0 1.32.001 1.721.046.387.043.563.119.678.206.093.07.176.153.246.245.087.116.163.291.206.678.045.402.046.932.046 1.72 0 .79-.001 1.32-.046 1.721-.043.387-.119.563-.206.678a1.25 1.25 0 01-.246.246c-.116.087-.29.163-.678.206-.401.045-.931.046-1.72.046-.79 0-1.32-.001-1.72-.046-.388-.043-.563-.119-.679-.206a1.25 1.25 0 01-.245-.246c-.087-.116-.163-.29-.206-.678-.045-.401-.046-.931-.046-1.72 0-.79.001-1.32.046-1.72.043-.388.119-.563.206-.679a1.25 1.25 0 01.245-.245zm2.357 9.706h.084c.736 0 1.35 0 1.844.055.52.058.997.184 1.416.5.204.154.385.335.539.54.316.418.442.896.5 1.415.055.494.055 1.108.055 1.844v.084c0 .736 0 1.35-.055 1.845-.058.518-.184.997-.5 1.415a2.75 2.75 0 01-.54.54c-.418.315-.896.441-1.415.499-.494.055-1.108.055-1.844.055H6.73c-.736 0-1.35 0-1.845-.055-.518-.058-.996-.184-1.415-.5a2.749 2.749 0 01-.54-.539c-.315-.418-.441-.897-.499-1.415-.055-.495-.055-1.109-.055-1.845v-.084c0-.736 0-1.35.055-1.844.058-.52.184-.997.5-1.416.153-.204.335-.385.539-.539.419-.316.897-.442 1.415-.5.495-.055 1.109-.055 1.845-.055zM5.05 15.38c-.387.043-.562.119-.678.207-.092.07-.175.152-.245.245-.087.116-.163.29-.206.678-.045.401-.046.931-.046 1.72 0 .79.001 1.32.046 1.72.043.388.119.563.206.679.07.093.153.175.245.245.116.087.291.163.678.206.402.045.932.046 1.72.046.79 0 1.32-.001 1.721-.046.387-.043.563-.119.678-.206.093-.07.176-.152.246-.245.087-.116.163-.291.206-.678.045-.402.046-.932.046-1.72 0-.79-.001-1.32-.046-1.721-.043-.387-.119-.563-.206-.678a1.248 1.248 0 00-.246-.245c-.116-.088-.29-.164-.678-.207-.401-.045-.931-.046-1.72-.046-.79 0-1.32.001-1.72.046zm13.18-1.546h-.043c-.736 0-1.35 0-1.844.055-.52.058-.997.184-1.416.5a2.753 2.753 0 00-.539.54c-.316.418-.442.896-.5 1.415-.055.494-.055 1.108-.055 1.844v.084c0 .736 0 1.35.055 1.845.058.518.184.997.5 1.415.154.204.335.386.54.54.418.315.896.441 1.415.499.494.055 1.108.055 1.844.055h.084c.736 0 1.35 0 1.845-.055.518-.058.997-.184 1.415-.5.204-.154.386-.335.54-.539.315-.418.441-.897.499-1.415.055-.495.055-1.109.055-1.845v-.084c0-.736 0-1.35-.055-1.844-.058-.52-.184-.997-.5-1.416a2.75 2.75 0 00-.539-.539c-.418-.316-.897-.442-1.415-.5-.495-.055-1.109-.055-1.845-.055h-.042zm-2.4 1.752c.117-.087.292-.163.679-.206.401-.045.931-.046 1.72-.046.79 0 1.32.001 1.72.046.388.043.563.119.679.207.093.07.175.152.245.245.087.116.163.29.206.678.045.401.046.931.046 1.72 0 .79-.001 1.32-.046 1.72-.043.388-.119.563-.206.679-.07.093-.152.175-.245.245-.116.087-.291.163-.678.206-.402.045-.932.046-1.72.046-.79 0-1.32-.001-1.721-.046-.387-.043-.563-.119-.678-.206a1.25 1.25 0 01-.245-.245c-.088-.116-.164-.291-.207-.678-.045-.402-.046-.932-.046-1.72 0-.79.001-1.32.046-1.721.043-.387.119-.563.207-.678.07-.093.152-.176.245-.245z" fill="#101F33"/></symbol><symbol fill="none" viewBox="0 0 26 25" id="close" xmlns="http://www.w3.org/2000/svg"><path fill-rule="evenodd" clip-rule="evenodd" d="M6.29 5.79a.65.65 0 01.92 0L13 11.58l5.79-5.79a.65.65 0 11.92.92l-5.79 5.79 5.79 5.79a.65.65 0 11-.92.92L13 13.42l-5.79 5.79a.65.65 0 11-.92-.92l5.79-5.79-5.79-5.79a.65.65 0 010-.92z" fill="#101F33"/></symbol><symbol fill="none" viewBox="0 0 25 25" id="favourite" xmlns="http://www.w3.org/2000/svg"><path d="M12.5 7.812l-.465.455.465.475.465-.475-.465-.455zm1.069-1.092l.464.454-.464-.454zm-2.138 0l.465-.455-.465.455zm-7.03 6.873l-.464.454.465-.454zm16.197 0l-.465-.455.465.455zm-8.801 7.563l.465-.455-.465.455zm1.406 0l.465.454-.465-.454zm-.941-.455l-7.395-7.563-.93.91 7.395 7.562.93-.909zM10.967 7.174l1.068 1.093.93-.909-1.069-1.093-.93.909zm1.998 1.093l1.068-1.093-.93-.909-1.068 1.093.93.909zm7.168 4.871l-7.395 7.563.93.91 7.395-7.564-.93-.909zm-6.1-5.964a4.266 4.266 0 016.1 0l.93-.909a5.566 5.566 0 00-7.96 0l.93.909zm-9.166 0a4.266 4.266 0 016.1 0l.93-.909a5.566 5.566 0 00-7.96 0l.93.909zm0 5.964a4.266 4.266 0 010-5.964l-.93-.909a5.566 5.566 0 000 7.782l.93-.909zm15.266-5.964a4.266 4.266 0 010 5.964l.93.91a5.566 5.566 0 000-7.783l-.93.909zm-8.8 14.436c.64.655 1.694.655 2.335 0l-.93-.909a.333.333 0 01-.476 0l-.93.91z" fill="#101F33"/></symbol><symbol fill="none" viewBox="0 0 26 25" id="hamburger" xmlns="http://www.w3.org/2000/svg"><path fill-rule="evenodd" clip-rule="evenodd" d="M2.826 6.548a.65.65 0 01.65-.65h19.048a.65.65 0 110 1.3H3.476a.65.65 0 01-.65-.65zm0 5.952a.65.65 0 01.65-.65h19.048a.65.65 0 110 1.3H3.476a.65.65 0 01-.65-.65zm.65 5.302a.65.65 0 100 1.3h19.048a.65.65 0 100-1.3H3.476z" fill="#101F33"/></symbol><symbol fill="none" viewBox="0 0 26 25" id="search" xmlns="http://www.w3.org/2000/svg"><path fill-rule="evenodd" clip-rule="evenodd" d="M4.275 11.458a7.683 7.683 0 1115.366 0 7.683 7.683 0 01-15.366 0zm7.683-8.983a8.983 8.983 0 000 17.967c2.247 0 4.3-.825 5.876-2.188l3.04 3.039a.65.65 0 10.919-.92l-3.04-3.039a8.983 8.983 0 00-6.795-14.86z" fill="#101F33"/></symbol><symbol fill="none" viewBox="0 0 25 25" id="user" xmlns="http://www.w3.org/2000/svg"><path fill-rule="evenodd" clip-rule="evenodd" d="M8.984 7.292a3.517 3.517 0 117.033 0 3.517 3.517 0 01-7.033 0zM12.5 2.475a4.817 4.817 0 100 9.633 4.817 4.817 0 000-9.633zm-3.125 12.5h-.014c-.141 0-.228 0-.305.002a4.65 4.65 0 00-4.495 4.496c-.002.076-.002.163-.002.304v.025l.001.16a2.65 2.65 0 002.72 2.563h10.44l.159-.001a2.65 2.65 0 002.561-2.562c.002-.044.002-.093.002-.16v-.025c0-.14 0-.228-.003-.304a4.65 4.65 0 00-4.495-4.495c-.076-.003-.163-.003-.304-.003H9.375zM9.1 16.277c.052-.002.116-.002.276-.002h6.25c.16 0 .224 0 .277.002a3.35 3.35 0 013.238 3.238 9.679 9.679 0 01.001.404 1.35 1.35 0 01-1.305 1.305l-.127.001H7.164a1.35 1.35 0 01-1.305-1.306v-.127l.001-.277A3.35 3.35 0 019.1 16.277z" fill="#101F33"/></symbol></svg>