<svg xmlns="http://www.w3.org/2000/svg" width="25" height="25" fill="none"><path fill-rule="evenodd" d="M12.5 2.475h-.046c-1.67 0-2.986 0-4.023.131-1.064.135-1.922.417-2.626 1.043S4.721 5.088 4.462 6.122c-.251 1.007-.404 2.301-.598 3.943l-.005.046-.325 2.75-.006.052-.403 4.895c.028 1.285.282 2.321 1.024 3.156s1.741 1.208 3.014 1.387c1.244.174 2.855.174 4.909.174h.053.75.053l4.909-.174c1.272-.178 2.272-.552 3.014-1.387s.996-1.871 1.024-3.156c.027-1.255-.162-2.855-.403-4.895l-.006-.052-.325-2.75-.005-.046h0l-.598-3.943c-.258-1.034-.639-1.847-1.342-2.473s-1.562-.908-2.626-1.043c-1.037-.131-2.353-.131-4.023-.131h0-.046zM6.668 4.621c.432-.384.997-.607 1.926-.725.946-.12 2.179-.121 3.905-.121l3.905.121c.929.118 1.494.341 1.926.725s.72.917.945 1.816c.229.917.373 2.129.573 3.826l.325 2.75.4 4.767c-.024 1.135-.244 1.812-.696 2.32s-1.098.805-2.223.963c-1.143.16-2.663.162-4.781.162h-.75c-2.118 0-3.638-.002-4.781-.162-1.125-.157-1.771-.455-2.223-.963s-.671-1.185-.696-2.32c-.025-1.154.152-2.664.4-4.767l.325-2.75.574-3.826c.224-.899.512-1.431.945-1.816zm3.357 4.754c0 1.367 1.108 2.475 2.475 2.475s2.475-1.108 2.475-2.475V7.292a.65.65 0 0 1 1.3 0v2.083c0 2.085-1.69 3.775-3.775 3.775s-3.775-1.69-3.775-3.775V7.292a.65.65 0 1 1 1.3 0v2.083z" fill="#101f33"/></svg>