<svg xmlns="http://www.w3.org/2000/svg" width="25" height="25" fill="none"><path fill-rule="evenodd" d="M18.229 2.375h-.042 0c-.736 0-1.35 0-1.844.055-.519.058-.997.184-1.416.5a2.75 2.75 0 0 0-.539.539c-.316.419-.442.897-.5 1.415-.055.494-.055 1.108-.055 1.844v.042.042l.055 1.844c.058.519.184.997.5 1.415.154.204.335.385.539.539.419.316.897.442 1.416.5.494.055 1.108.055 1.844.055h0 0 0 .042.042 0 0 0l1.844-.055c.519-.058.997-.184 1.415-.5a2.75 2.75 0 0 0 .539-.539c.316-.419.442-.897.5-1.415.055-.494.055-1.108.055-1.844h0v-.042-.042h0l-.055-1.844c-.058-.519-.184-.997-.5-1.415a2.75 2.75 0 0 0-.539-.539c-.419-.316-.897-.442-1.415-.5-.494-.055-1.108-.055-1.844-.055h0-.042zm-2.399 1.752c.116-.087.291-.163.678-.206.402-.045.931-.046 1.721-.046l1.721.046c.387.043.562.119.678.206a1.25 1.25 0 0 1 .245.245c.087.116.163.291.206.678.045.402.046.931.046 1.721l-.046 1.721c-.043.387-.119.562-.206.678a1.25 1.25 0 0 1-.245.245c-.116.088-.291.163-.678.206-.402.045-.931.046-1.721.046s-1.319-.001-1.721-.046c-.387-.043-.562-.119-.678-.206a1.25 1.25 0 0 1-.245-.245c-.088-.116-.163-.291-.206-.678-.045-.402-.046-.931-.046-1.721l.046-1.721c.043-.387.119-.562.206-.678a1.25 1.25 0 0 1 .245-.245zm-9.06-1.752h-.042 0c-.736 0-1.35 0-1.844.055-.519.058-.997.184-1.415.5a2.75 2.75 0 0 0-.539.539c-.316.419-.442.897-.5 1.415-.055.494-.055 1.108-.055 1.844v.042.042l.055 1.844c.058.519.184.997.5 1.415a2.75 2.75 0 0 0 .539.539c.419.316.897.442 1.415.5.494.055 1.108.055 1.844.055h0 0 0 .042.042 0 0 0l1.844-.055c.519-.058.997-.184 1.415-.5.204-.154.385-.335.539-.539.316-.419.442-.897.5-1.415.055-.494.055-1.108.055-1.844h0 0 0v-.042-.042h0 0 0l-.055-1.844c-.058-.519-.184-.997-.5-1.415a2.75 2.75 0 0 0-.539-.539c-.419-.316-.897-.442-1.415-.5-.494-.055-1.108-.055-1.844-.055h0-.042zM4.372 4.127c.116-.087.291-.163.678-.206.402-.045.931-.046 1.721-.046l1.721.046c.387.043.562.119.678.206a1.25 1.25 0 0 1 .245.245c.088.116.163.291.206.678.045.402.046.931.046 1.721l-.046 1.721c-.043.387-.119.562-.206.678a1.25 1.25 0 0 1-.245.245c-.116.088-.291.163-.678.206-.402.045-.931.046-1.721.046s-1.319-.001-1.721-.046c-.387-.043-.562-.119-.678-.206a1.25 1.25 0 0 1-.245-.245c-.087-.116-.163-.291-.206-.678-.045-.402-.046-.931-.046-1.721l.046-1.721c.043-.387.119-.562.206-.678a1.25 1.25 0 0 1 .245-.245zm2.356 9.706h.042.042l1.844.055c.519.058.997.184 1.415.5.204.154.385.335.539.539.316.419.442.897.5 1.416.055.494.055 1.108.055 1.844h0 0v.042.042h0 0l-.055 1.844c-.058.519-.184.997-.5 1.415a2.75 2.75 0 0 1-.539.539c-.419.316-.897.442-1.415.5-.494.055-1.108.055-1.844.055h0-.042-.042 0c-.736 0-1.35 0-1.844-.055-.519-.058-.997-.184-1.415-.5a2.75 2.75 0 0 1-.539-.539c-.316-.419-.442-.897-.5-1.415-.055-.494-.055-1.108-.055-1.844h0v-.042-.042h0l.055-1.844c.058-.519.184-.997.5-1.416a2.75 2.75 0 0 1 .539-.539c.419-.316.897-.442 1.415-.5.494-.055 1.108-.055 1.844-.055zM5.05 15.379c-.387.043-.562.119-.678.206a1.25 1.25 0 0 0-.245.245c-.087.116-.163.291-.206.678-.045.402-.046.931-.046 1.721l.046 1.721c.043.387.119.562.206.678a1.25 1.25 0 0 0 .245.245c.116.087.291.163.678.206.402.045.931.046 1.721.046l1.721-.046c.387-.043.562-.119.678-.206a1.25 1.25 0 0 0 .245-.245c.088-.116.163-.291.206-.678.045-.402.046-.931.046-1.721l-.046-1.721c-.043-.387-.119-.562-.206-.678a1.25 1.25 0 0 0-.245-.245c-.116-.088-.291-.163-.678-.206-.402-.045-.931-.046-1.721-.046l-1.721.046zm13.179-1.546h-.042l-1.844.055c-.519.058-.997.184-1.416.5-.204.154-.385.335-.539.539-.316.419-.442.897-.5 1.416-.055.494-.055 1.108-.055 1.844v.042.042l.055 1.844c.058.519.184.997.5 1.415a2.75 2.75 0 0 0 .539.539c.419.316.897.442 1.416.5.494.055 1.108.055 1.844.055h0 .042.042 0l1.844-.055c.519-.058.997-.184 1.415-.5a2.75 2.75 0 0 0 .539-.539c.316-.419.442-.897.5-1.415.055-.494.055-1.108.055-1.844v-.042-.042l-.055-1.844c-.058-.519-.184-.997-.5-1.416a2.75 2.75 0 0 0-.539-.539c-.419-.316-.897-.442-1.415-.5-.494-.055-1.108-.055-1.844-.055h-.042zm-2.399 1.752c.116-.088.291-.163.678-.206.402-.045.931-.046 1.721-.046l1.721.046c.387.043.562.119.678.206a1.25 1.25 0 0 1 .245.245c.087.116.163.291.206.678.045.402.046.931.046 1.721l-.046 1.721c-.043.387-.119.562-.206.678a1.25 1.25 0 0 1-.245.245c-.116.087-.291.163-.678.206-.402.045-.931.046-1.721.046s-1.319-.001-1.721-.046c-.387-.043-.562-.119-.678-.206a1.25 1.25 0 0 1-.245-.245c-.088-.116-.163-.291-.206-.678-.045-.402-.046-.931-.046-1.721l.046-1.721c.043-.387.119-.562.206-.678.07-.093.152-.175.245-.245z" fill="#101f33"/></svg>