<svg xmlns="http://www.w3.org/2000/svg" width="25" height="25" fill="none"><path d="M12.5 7.812l-.465.454.465.475.465-.475-.465-.454zm1.069-1.093l.465.454-.465-.454zm-2.137 0l.465-.454-.465.454zm-7.029 6.873l-.465.454.465-.454zm16.196 0l-.465-.454.465.454zm-8.801 7.563l.465-.454-.465.454zm1.406 0l.465.454-.465-.454zm-.941-.454l-7.395-7.563-.93.909 7.395 7.563.929-.909zM10.967 7.174l1.069 1.093.93-.909-1.069-1.093-.93.909zm1.998 1.093l1.069-1.093-.93-.909-1.069 1.093.93.909zm7.169 4.872l-7.395 7.563.929.909 7.395-7.563-.93-.909zm-6.1-5.964c1.673-1.711 4.427-1.711 6.1 0l.93-.909c-2.183-2.233-5.776-2.233-7.959 0l.93.909zm-9.167 0c1.673-1.711 4.427-1.711 6.1 0l.93-.909c-2.183-2.233-5.776-2.233-7.959 0l.93.909zm0 5.964c-1.621-1.658-1.621-4.307 0-5.964l-.93-.909c-2.115 2.163-2.115 5.619 0 7.782l.93-.909zm15.267-5.964c1.621 1.658 1.621 4.307 0 5.964l.93.909c2.115-2.163 2.115-5.619 0-7.782l-.93.909zM11.332 21.61c.641.655 1.695.655 2.336 0l-.929-.909c-.131.134-.346.134-.477 0l-.929.909z" fill="#101f33"/></svg>