<svg xmlns="http://www.w3.org/2000/svg" width="25" height="25" fill="none"><path fill-rule="evenodd" d="M8.984 7.292A3.52 3.52 0 0 1 12.5 3.775a3.52 3.52 0 0 1 3.517 3.517 3.52 3.52 0 0 1-3.517 3.517 3.52 3.52 0 0 1-3.517-3.517zM12.5 2.475a4.82 4.82 0 0 0-4.817 4.817 4.82 4.82 0 0 0 4.817 4.817 4.82 4.82 0 0 0 4.817-4.817A4.82 4.82 0 0 0 12.5 2.475zm-3.125 12.5h-.014 0l-.304.002a4.65 4.65 0 0 0-4.495 4.495l-.002.305h0v.014.011l.001.159a2.65 2.65 0 0 0 2.562 2.562l.159.001h0 .011 10.417.011 0l.159-.001a2.65 2.65 0 0 0 2.562-2.562l.001-.159v-.011-.014h0l-.003-.305a4.65 4.65 0 0 0-4.495-4.495l-.304-.002h0-.014-6.25zm-.276 1.302l.276-.002h6.25l.276.002a3.35 3.35 0 0 1 3.239 3.239l.002.276-.001.128a1.35 1.35 0 0 1-1.305 1.305l-.127.001H7.292c-.083 0-.108 0-.128-.001a1.35 1.35 0 0 1-1.305-1.305v-.128l.002-.276a3.35 3.35 0 0 1 3.239-3.239z" fill="#101f33"/></svg>